<svg xmlns="http://www.w3.org/2000/svg" viewBox="0 0 1672.7 1792">
    <path d="M832.4,0C440.6,8.8,396.2,295.1,479.8,625.3c-13.1,8.8-39.8,40.3-35.4,93.1,13.1,96.8,52.8,123.2,74.7,123.2,8.9,66,40,135.5,70.8,179.6,22,30.8,30.2,70.5,30.2,110.1,0,35.2.4,12.8-4,52.4a139.9,139.9,0,0,1-18.3,35.4c9,34,60.9,195.4,238.6,195.4,181.8,0,230.7-174.2,235.9-195.4a142.3,142.3,0,0,1-19.6-35.4c-4.5-48.3-5.3-25.8-5.3-65.5,0-35.2,13.8-65.4,31.5-91.8,30.8-44,60.6-118.8,69.4-184.8,26.6,0,65.9-26.4,74.8-123.2,4.4-52.8-16.4-84.3-34.1-93.1,44.1-123.2,127-505.7-154.7-545.3C1003.5,27.2,929.3,0,832.4,0Zm309.4,1278.1c-35.2,93.8-128.5,220.3-305.4,220.3s-270.1-124.2-306.8-219C355.3,1386.8,0,1419.7,0,1792H1672.7C1672.7,1410.2,1319.1,1384,1141.8,1278.1Z"/>
</svg>
